<?xml version="1.0" encoding="UTF-8"?>
<svg width="90" height="60" version="1.1" viewBox="0 0 90 60" xmlns="http://www.w3.org/2000/svg"><path d="m10.106 32.397h56.524c-1.9179 2.3174-4.9546 8.3109-4.9546 9.7497 0 0.71921 0.6393 1.2786 1.4384 1.2786 0.6393 0 0.87903-0.23973 2.0777-1.5982 3.1964-3.7559 6.7126-6.4729 12.546-9.7497 1.5982-0.87903 2.1577-1.3585 2.1577-1.9179 0-0.6393-0.31965-1.0389-0.95895-1.4384-8.0711-4.7148-10.228-6.4729-14.305-11.268-0.6393-0.71921-0.95895-0.87903-1.5183-0.87903-0.79912 0-1.4384 0.55939-1.4384 1.2786 0 0.47948 0.95895 3.1166 1.5982 4.3952 0.87903 1.838 1.838 3.2764 3.3563 5.3541h-56.524z" stroke-width="6.6594" aria-label="→"/></svg>
