<svg width="24" height="24" version="1.1" viewBox="0 0 24 24" xmlns="http://www.w3.org/2000/svg"><path d="m14.5 7.9c0.6 2.2-2.9 2.9-3.9 3.2l-1.1-3.9c1-0.3 4.4-1.6 5 0.7zm2.6 5.7c0.7 2.4-3.5 3.3-4.8 3.7l-1.2-4.3c1.3-0.4 5.3-1.9 6 0.6zm0.8-7.6c-0.9-2.2-3.1-2.4-5.6-2l-0.9-3.2-2 0.6 0.9 3.1c-0.5 0.2-1 0.3-1.5 0.5l-0.9-3.1-1.9 0.5 0.9 3.2c-0.5 0.1-3.9 1.1-3.9 1.1l0.6 2.1 1.4-0.4c0.8-0.2 1.2 0.2 1.3 0.5 0 0 1 3.5 1 3.6l1.4 5.1c0 0.3 0 0.7-0.5 0.8l-1.4 0.4 0.3 2.4 2.5-0.7c0.5-0.1 0.9-0.3 1.4-0.4l0.9 3.2 1.9-0.6-0.8-3.1c0.5-0.1 1-0.3 1.5-0.4l0.9 3.2 1.9-0.6-0.9-3.2c3.2-1.1 5.2-2.6 4.6-5.7-0.5-2.5-1.9-3.3-3.9-3.2 1-0.9 1.4-2.1 0.8-3.7z"/></svg>
