<svg width="24" height="24" version="1.1" viewBox="0 0 24 24" xmlns="http://www.w3.org/2000/svg"><path d="m16.4 9.7c-0.6 2.2-3.9 1.1-5 0.8l1-3.9c1 0.3 4.5 0.9 4 3.1zm-0.6 6.3c-0.6 2.4-4.7 1.1-6 0.8l1.1-4.3c1.3 0.3 5.5 1 4.9 3.5zm4.4-6.2c0.4-2.4-1.4-3.6-3.9-4.5l0.8-3.2-1.9-0.5-0.8 3.1c-0.5-0.1-1-0.3-1.6-0.4l0.8-3.1-1.9-0.5-0.8 3.3c-0.5-0.1-0.9-0.2-1.3-0.3l-2.7-0.7-0.5 2.1 1.4 0.4c0.8 0.2 0.9 0.7 0.9 1.1l-0.9 3.7-1.3 5.1c-0.1 0.2-0.3 0.6-0.9 0.5l-1.4-0.4-1 2.2 2.5 0.6c0.5 0.1 0.9 0.2 1.4 0.4l-0.8 3.2 1.9 0.5 0.8-3.2c0.5 0.1 1 0.3 1.5 0.4l-0.8 3.2 1.9 0.5 0.8-3.2c3.3 0.6 5.8 0.4 6.9-2.6 0.8-2.4 0-3.8-1.8-4.7 1.5-0.5 2.4-1.3 2.7-3z"/></svg>
