<svg width="1536" height="1536" version="1.1" viewBox="0 0 1536 1536" xmlns="http://www.w3.org/2000/svg"><path d="m1536 409.27c0 24.774-9.9097 49.548-27.747 67.386l-852.23 852.23c-17.837 17.837-42.612 27.747-67.386 27.747s-49.548-9.9097-67.386-27.747l-493.5-493.5c-17.837-17.837-27.747-42.612-27.747-67.386s9.9097-49.548 27.747-67.386l134.77-134.77c17.837-17.837 42.612-27.747 67.386-27.747s49.548 9.9097 67.386 27.747l291.34 292.34 650.08-651.07c17.837-17.837 42.612-27.747 67.386-27.747s49.548 9.9097 67.386 27.747l134.77 134.77c17.837 17.837 27.747 42.612 27.747 67.386z" stroke-width=".99097"/></svg>
