<svg width="1536" height="1536" version="1.1" viewBox="0 0 1536 1536" xmlns="http://www.w3.org/2000/svg"><path d="m768 219.43c-356.57 0-658.29 200.57-658.29 438.86 0 127.71 85.714 249.43 234 333.43l74.571 42.857-23.143 82.286c-16.286 60.857-37.714 108-60 147.43 86.571-36 165.43-84.857 235.71-146.57l36.857-32.571 48.857 5.1428c36.857 4.2857 74.571 6.8572 111.43 6.8572 356.57 0 658.29-200.57 658.29-438.86s-301.71-438.86-658.29-438.86zm768 438.86c0 303.43-343.71 548.57-768 548.57-42 0-84-2.5714-124.29-6.8571-112.29 99.429-246 169.71-394.29 207.43-30.857 8.5714-64.286 14.571-97.714 18.857h-4.2857c-17.143 0-32.571-13.714-36.857-32.571v-0.8572c-4.2857-21.428 10.286-34.286 23.143-49.714 54-60.857 115.71-112.29 156-255.43-176.57-100.29-289.71-255.43-289.71-429.43 0-303.43 343.71-548.57 768-548.57s768 245.14 768 548.57z" stroke-width=".85714"/></svg>
