<svg width="1536" height="1536" version="1.1" viewBox="0 0 1536 1536" xmlns="http://www.w3.org/2000/svg"><path d="m1280 440.32c33.92 0 61.44 27.52 61.44 61.44v778.24c0 33.92-27.52 61.44-61.44 61.44h-614.4c-33.92 0-61.44-27.52-61.44-61.44v-184.32h-348.16c-33.92 0-61.44-27.52-61.44-61.44v-430.08c0-33.92 19.84-81.28 43.52-104.96l261.12-261.12c23.68-23.68 71.04-43.52 104.96-43.52h266.24c33.92 0 61.44 27.52 61.44 61.44v209.92c24.96-14.72 56.96-25.6 81.92-25.6zm-348.16 136.32-191.36 191.36h191.36zm-409.6-245.76-191.36 191.36h191.36zm125.44 414.08 202.24-202.24v-266.24h-245.76v266.24c0 33.92-27.52 61.44-61.44 61.44h-266.24v409.6h327.68v-163.84c0-33.92 19.84-81.28 43.52-104.96zm611.84 514.56v-737.28h-245.76v266.24c0 33.92-27.52 61.44-61.44 61.44h-266.24v409.6z" stroke-width=".64"/></svg>
