<svg width="1536" height="1536" version="1.1" viewBox="0 0 1536 1536" xmlns="http://www.w3.org/2000/svg"><path d="m488.73 698.18h558.55v-209.45c0-153.82-125.45-279.27-279.27-279.27s-279.27 125.45-279.27 279.27zm907.64 104.73v628.36c0 57.818-46.909 104.73-104.73 104.73h-1047.3c-57.818 0-104.73-46.909-104.73-104.73v-628.36c0-57.818 46.909-104.73 104.73-104.73h34.909v-209.45c0-268.36 220.36-488.73 488.73-488.73 268.36 0 488.73 220.36 488.73 488.73v209.45h34.909c57.818 0 104.73 46.909 104.73 104.73z" stroke-width="1.0909"/></svg>
