<svg width="1536" height="1536" version="1.1" viewBox="0 0 1536 1536" xmlns="http://www.w3.org/2000/svg"><path d="m334.66 1201.3c0-29.622-24.544-54.166-54.166-54.166s-54.166 24.544-54.166 54.166 24.544 54.166 54.166 54.166 54.166-24.544 54.166-54.166zm975.01-487.5c0-57.552-51.628-108.33-108.33-108.33h-297.91c0-99.024 81.249-170.96 81.249-270.83 0-99.024-19.466-162.5-135.42-162.5-54.166 55.013-26.237 184.5-108.33 270.83-23.698 24.544-44.01 50.782-65.17 77.018-38.085 49.088-138.8 193.81-205.67 193.81h-27.083v541.66h27.083c47.395 0 125.26 30.468 170.96 46.549 93.1 32.162 189.58 61.784 289.45 61.784h102.41c95.64 0 162.5-38.085 162.5-141.34 0-16.081-1.6927-32.162-4.2317-47.396 35.546-19.466 55.013-67.708 55.013-106.64 0-20.312-5.0782-40.626-15.234-58.398 28.776-27.083 44.856-60.938 44.856-100.72 0-27.083-11.849-66.862-29.622-87.174 39.779-0.84635 63.476-77.018 63.476-108.33zm108.33-0.84636c0 49.088-14.388 97.327-41.472 137.95 5.0781 18.62 7.6172 38.933 7.6172 58.398 0 42.318-11.002 84.636-32.162 121.87 1.6927 11.849 2.539 24.544 2.539 36.393 0 54.166-17.774 108.33-50.782 150.66 1.6927 159.96-107.49 253.9-264.06 253.9h-109.18c-120.18 0-231.9-35.546-343.62-74.48-24.544-8.4635-93.1-33.854-116.79-33.854h-243.76c-60.091 0-108.33-48.242-108.33-108.33v-541.66c0-60.091 48.242-108.33 108.33-108.33h231.9c33.008-22.006 90.559-98.18 115.95-131.19 28.776-37.239 58.398-73.634 90.559-108.33 50.782-54.166 23.698-187.89 108.33-270.83 20.312-19.466 47.395-31.316 76.172-31.316 88.021 0 172.66 31.316 214.13 113.41 26.237 51.628 29.622 100.72 29.622 157.42 0 59.245-15.234 110.02-40.625 162.5h148.96c116.79 0 216.66 99.024 216.66 215.82z" stroke-width=".84636"/></svg>
