<svg class="tabler" width="24" height="24" fill="none" stroke="currentColor" stroke-linecap="round" stroke-linejoin="round" stroke-width="1.5" version="1.1" viewBox="0 0 24 24" xmlns="http://www.w3.org/2000/svg"><path d="m9.7 10.85h-4.6a1.09 1.09 0 0 1-1.1-1.15v-3.45a1.09 1.09 0 0 1 1.1-1.15h3.45a1.09 1.09 0 0 1 1.15 1.15v6.9c0 3.1-1.49 4.94-4.6 5.75"/><path d="m20 10.85h-4.6a1.09 1.09 0 0 1-1.1-1.15v-3.45a1.09 1.09 0 0 1 1.15-1.15h3.45a1.09 1.09 0 0 1 1.1 1.15v6.9c0 3.1-1.49 4.94-4.6 5.75"/></svg>
